<svg viewBox="0 0 512 512" xmlns="http://www.w3.org/2000/svg" width="512" height="512"><defs><linearGradient id="topFoldGrad" x1="0%" y1="0%" x2="100%" y2="100%"><stop offset="0%" stop-color="#a855f7"/><stop offset="100%" stop-color="#7c3aed"/></linearGradient><linearGradient id="mainBodyGrad" x1="0%" y1="0%" x2="100%" y2="100%"><stop offset="0%" stop-color="#8b5cf6"/><stop offset="100%" stop-color="#4c1d95"/></linearGradient><linearGradient id="swooshGrad" x1="0%" y1="0%" x2="100%" y2="100%"><stop offset="0%" stop-color="#c084fc"/><stop offset="100%" stop-color="#6d28d9"/></linearGradient><linearGradient id="leftStemGrad" x1="0%" y1="0%" x2="100%" y2="100%"><stop offset="0%" stop-color="#6366f1"/><stop offset="100%" stop-color="#312e81"/></linearGradient></defs><g stroke="#ffffff" stroke-width="15" stroke-linejoin="round" stroke-linecap="round" fill="#ffffff"><path d="M 140,210 C 140,210 185,200 220,200 C 225,200 225,270 225,350 C 225,410 195,450 140,450 C 125,450 120,435 120,415 C 120,340 140,210 140,210 Z"/><path d="M 140,450 C 190,450 240,400 240,330 C 240,270 195,260 145,260 C 145,260 160,320 160,370 C 160,415 140,450 140,450 Z"/><path d="M 140,135 C 140,135 175,70 280,70 C 390,70 425,150 425,245 C 425,335 335,370 240,370 C 215,370 190,365 190,365 C 225,355 290,340 330,305 C 375,270 380,200 350,150 C 320,105 255,100 200,100 C 155,100 140,135 140,135 Z"/><path d="M 140,135 C 165,95 240,95 305,105 C 240,115 180,125 140,135 Z"/></g><g><path d="M 140,210 C 140,210 185,200 220,200 C 225,200 225,270 225,350 C 225,410 195,450 140,450 C 125,450 120,435 120,415 C 120,340 140,210 140,210 Z" fill="url(#leftStemGrad)"/><path d="M 140,450 C 190,450 240,400 240,330 C 240,270 195,260 145,260 C 145,260 160,320 160,370 C 160,415 140,450 140,450 Z" fill="url(#swooshGrad)"/><path d="M 140,135 C 140,135 175,70 280,70 C 390,70 425,150 425,245 C 425,335 335,370 240,370 C 215,370 190,365 190,365 C 225,355 290,340 330,305 C 375,270 380,200 350,150 C 320,105 255,100 200,100 C 155,100 140,135 140,135 Z" fill="url(#mainBodyGrad)"/><path d="M 140,135 C 165,95 240,95 305,105 C 240,115 180,125 140,135 Z" fill="url(#topFoldGrad)"/></g></svg>